<?xml version="1.0" standalone="no"?>
<!DOCTYPE svg PUBLIC "-//W3C//DTD SVG 20010904//EN"
 "http://www.w3.org/TR/2001/REC-SVG-20010904/DTD/svg10.dtd">
<svg version="1.0" xmlns="http://www.w3.org/2000/svg"
 width="257.000000pt" height="300.000000pt" viewBox="0 0 257.000000 300.000000"
 preserveAspectRatio="xMidYMid meet">
<metadata>
Created by potrace 1.10, written by Peter Selinger 2001-2011
</metadata>
<g transform="translate(0.000000,300.000000) scale(0.100000,-0.100000)"
fill="#000000" stroke="none">
<path d="M1009 2776 c-17 -10 -34 -35 -49 -73 -12 -32 -26 -67 -30 -78 -5 -11
-24 -65 -43 -120 -19 -55 -60 -163 -92 -240 -65 -158 -148 -369 -206 -525 -22
-58 -44 -114 -49 -125 -4 -11 -17 -47 -28 -80 -11 -33 -40 -118 -65 -190 -24
-71 -53 -159 -65 -195 -77 -242 -101 -284 -199 -347 -60 -38 -72 -56 -53 -78
10 -12 44 -15 180 -15 151 0 170 2 191 19 l24 20 -42 43 c-24 24 -43 50 -43
57 0 26 65 136 103 173 43 44 59 46 107 16 97 -59 144 -70 331 -75 194 -6 238
1 266 43 24 38 3 95 -68 181 -32 39 -59 74 -59 78 0 4 30 6 68 3 82 -4 222
-65 222 -95 0 -10 -22 -51 -48 -90 -26 -40 -60 -96 -77 -124 -31 -52 -87 -136
-141 -211 -17 -24 -82 -137 -144 -252 -86 -161 -110 -213 -103 -225 11 -18
120 -22 898 -36 378 -7 412 -9 437 -26 62 -45 83 -13 137 211 50 205 63 326
37 336 -21 8 -49 -17 -90 -81 -18 -27 -62 -84 -98 -125 -78 -88 -168 -143
-275 -165 -91 -20 -611 -21 -635 -3 -15 12 -10 24 50 120 77 123 96 154 135
223 26 47 81 105 100 105 17 0 96 74 108 101 14 36 13 134 -2 174 -7 16 -30
54 -52 83 -22 29 -37 55 -34 59 4 3 53 10 109 15 229 19 323 53 425 154 46 46
83 125 83 178 0 51 -28 122 -59 150 -11 11 -21 26 -21 35 0 16 44 89 161 270
105 161 131 231 97 259 -15 12 -300 22 -746 26 -264 2 -325 5 -336 17 -7 8
-23 41 -36 74 -51 136 -140 332 -156 346 -22 18 -96 21 -125 5z m118 -53 c8
-21 80 -213 158 -428 78 -214 150 -407 159 -429 9 -21 16 -40 16 -42 0 -1 -29
-17 -64 -34 -35 -18 -74 -43 -87 -56 -24 -25 -39 -31 -39 -14 0 6 -48 142
-106 303 -59 161 -122 335 -140 387 -19 52 -37 94 -40 93 -4 -1 -19 -39 -34
-85 -42 -128 -440 -1219 -457 -1251 -22 -43 -7 -45 30 -6 101 109 325 205 527
225 l68 6 12 42 c57 193 245 352 448 378 45 6 89 8 98 4 63 -24 -107 -321
-230 -401 -25 -16 -46 -33 -46 -36 0 -10 321 -22 376 -14 82 11 200 54 247 90
54 41 87 92 87 132 0 40 -19 54 -68 52 -49 -3 -72 14 -72 51 0 38 41 70 91 70
70 0 129 -73 129 -162 0 -117 -120 -227 -300 -275 -70 -18 -336 -25 -417 -10
-25 4 -43 3 -43 -2 0 -5 19 -16 43 -26 130 -52 218 -199 188 -312 -14 -51 -70
-103 -110 -103 -30 0 -76 38 -87 72 -14 45 64 80 86 38 15 -28 26 -25 39 11
18 51 13 82 -19 132 -53 84 -229 176 -370 194 -76 9 -250 6 -250 -6 0 -4 24
-17 54 -30 36 -15 72 -41 109 -80 59 -62 110 -151 101 -175 -9 -22 -80 -29
-233 -23 -173 7 -235 26 -346 105 l-49 35 -64 -68 c-67 -73 -132 -178 -132
-214 0 -34 16 -57 55 -80 19 -11 35 -25 35 -31 0 -12 -299 -13 -318 -1 -9 5 2
14 35 28 65 27 107 64 131 116 11 24 48 120 81 215 102 290 253 702 473 1292
27 74 64 173 80 220 48 136 51 140 104 140 43 0 46 -2 61 -37z m-56 -594 c37
-107 83 -240 103 -297 20 -56 36 -108 36 -116 0 -16 -15 -45 -55 -106 -17 -25
-41 -67 -56 -95 -30 -60 -56 -74 -192 -106 -53 -12 -134 -39 -180 -60 -45 -20
-86 -35 -90 -32 -15 9 -7 33 98 303 31 80 63 165 70 190 7 25 36 110 63 190
27 80 60 179 72 220 27 91 38 112 53 107 7 -2 42 -91 78 -198z m1319 153 c0
-4 -67 -115 -149 -247 l-149 -240 -44 -5 c-59 -8 -87 -25 -104 -65 -19 -45
-18 -49 11 -83 l25 -30 -63 -100 c-37 -60 -70 -103 -82 -106 -38 -9 -214 -19
-230 -12 -15 6 -15 10 7 39 13 17 123 190 243 382 120 193 229 365 242 383
l24 32 -388 -1 -388 0 -13 25 c-7 14 -11 29 -9 34 6 9 1067 4 1067 -6z m-383
-118 c3 -9 -6 -28 -24 -47 -16 -18 -47 -59 -68 -92 -21 -32 -53 -75 -71 -95
-17 -19 -39 -51 -49 -70 -25 -50 -35 -52 -72 -19 -37 32 -52 36 -140 42 -69 4
-90 20 -112 87 -15 43 -22 60 -51 127 -38 87 -52 83 285 83 259 0 296 -2 302
-16z m-227 -388 c0 -8 -22 -48 -50 -89 -27 -41 -50 -79 -50 -85 0 -6 -10 -23
-22 -39 -27 -33 -40 -54 -69 -110 -12 -23 -29 -43 -38 -46 -42 -11 -37 9 23
81 61 75 126 195 140 259 7 30 12 33 59 42 4 0 7 -5 7 -13z m297 -182 c8 -23
-24 -79 -61 -107 -39 -30 -76 -50 -82 -44 -8 7 13 51 51 111 28 43 41 56 61
56 14 0 27 -7 31 -16z m-1477 -326 c-21 -17 -25 -18 -28 -5 -2 9 2 26 8 38 11
20 13 20 28 5 16 -16 15 -19 -8 -38z m912 -125 c41 -44 58 -73 58 -102 0 -24
-1 -25 -33 -10 -33 15 -80 -10 -97 -51 -15 -36 -1 -80 36 -109 13 -11 24 -21
24 -24 0 -8 -258 -427 -286 -464 -13 -17 -24 -35 -24 -40 0 -13 644 -16 728
-4 116 17 191 58 286 153 45 46 106 119 134 163 40 61 52 74 51 55 -1 -43
-114 -483 -125 -487 -6 -2 -15 7 -21 20 l-11 24 -653 7 c-360 4 -655 9 -657
11 -5 5 151 265 335 560 82 132 162 261 177 288 16 26 31 47 35 47 4 0 23 -17
43 -37z"/>
<path d="M1526 1729 c-106 -36 -216 -122 -277 -218 -51 -79 -36 -81 57 -7 38
30 78 68 89 85 21 33 55 42 55 15 0 -22 -79 -117 -135 -163 -63 -51 -59 -70 8
-34 74 39 204 173 250 257 20 38 37 73 37 77 0 13 -17 10 -84 -12z m6 -51 c-7
-7 -12 -20 -12 -29 0 -9 -7 -22 -15 -29 -13 -10 -19 -10 -35 5 -26 24 -25 32
8 49 34 19 72 22 54 4z"/>
<path d="M820 1242 c0 -4 19 -13 43 -20 57 -16 147 -69 147 -87 0 -20 -20 -19
-82 6 -38 15 -82 23 -153 26 l-100 4 33 -29 c54 -48 146 -72 299 -79 82 -4
133 -2 133 3 0 18 -101 124 -134 141 -62 32 -186 55 -186 35z"/>
</g>
</svg>
